#!OML:ASF I:\Actors\actors\Patient Classification 2\Patient 1\Session 1\actor1.ASF
:FULLY-SPECIFIED
:DEGREES
709
root -1.036 18.1672 5.75516 -1.42304 2.32481 -5.00975
lowerback 4.15242 1.61526 3.59398
upperback 1.71299 2.30617 1.77755
thorax -0.497698 1.16138 -0.290997
lowerneck -8.33666 3.83216 1.12862
upperneck 33.5313 10.1825 -13.4771
head 13.5826 3.07757 -4.12887
rclavicle -6.37043e-015 -3.32964e-015
rhumerus -20.4627 45.652 -86.0009
rradius 112.175
rwrist -1.97777
rhand -27.5882 -36.8211
rfingers 7.12502
rthumb -0.988231 -426.799
lclavicle -6.37043e-015 -3.32964e-015
lhumerus -19.5454 -19.4068 100.42
lradius 98.1503
lwrist 79.5946
lhand -15.9047 -12.5832
lfingers 7.12502
lthumb 10.2921 17.145
rfemur 0 0 0
rtibia 0
rfoot 0 0
rtoes 0
lfemur 18.652 -6.28229 -11.6805
ltibia -19.8565
lfoot -0.970003 18.2944
ltoes -13.3924
710
root -1.03601 18.1672 5.75315 -1.38595 2.25568 -5.04648
lowerback 4.50689 1.65543 3.87478
upperback 1.4373 2.39805 1.64593
thorax -0.958677 1.19809 -0.603827
lowerneck -8.05064 3.78303 1.20877
upperneck 33.6505 10.0592 -13.3549
head 13.5508 3.05553 -4.1214
rclavicle 2.31794e-014 4.96962e-017
rhumerus -20.1971 45.241 -86.312
rradius 111.838
rwrist -1.83257
rhand -28.0136 -36.6374
rfingers 7.12502
rthumb -1.39904 -426.613
lclavicle 2.31794e-014 4.96962e-017
lhumerus -20.0069 -19.623 100.389
lradius 98.1794
lwrist 79.6379
lhand -15.9867 -12.5722
lfingers 7.12502
lthumb 10.213 17.1598
rfemur 0 0 0
rtibia 0
rfoot 0 0
rtoes 0
lfemur 18.6295 -6.25948 -11.6354
ltibia -19.8654
lfoot -1.0139 18.3479
ltoes -13.3983
711
root -1.03592 18.1678 5.75142 -1.37235 2.18864 -5.04959
lowerback 4.60995 1.65507 3.98056
upperback 1.34467 2.41066 1.60623
thorax -1.10484 1.20089 -0.70946
lowerneck -8.00212 3.76897 1.18382
upperneck 33.7864 10.0208 -13.2318
head 13.5856 3.04579 -4.07965
rclavicle -1.5355e-014 3.47873e-015
rhumerus -19.3805 45.1976 -86.1657
rradius 111.31
rwrist -1.71289
rhand -28.6081 -36.5206
rfingers 7.12502
rthumb -1.9732 -426.491
lclavicle -1.5355e-014 3.47873e-015
lhumerus -20.195 -19.6841 100.373
lradius 98.1764
lwrist 79.6228
lhand -16.1233 -12.644
lfingers 7.12502
lthumb 10.0812 17.0945
rfemur 0 0 0
rtibia 0
rfoot 0 0
rtoes 0
lfemur 18.6333 -6.22802 -11.6291
ltibia -19.8707
lfoot -1.06175 18.3902
ltoes -13.3141
712
root -1.03589 18.1687 5.74913 -1.37329 2.09521 -5.03898
lowerback 4.62716 1.64837 3.98814
upperback 1.33602 2.40376 1.63574
thorax -1.1246 1.19697 -0.683842
lowerneck -8.07925 3.76622 1.0834
upperneck 33.9279 10.0181 -13.1022
head 13.6519 3.03706 -4.01469
rclavicle 1.68563e-014 -4.11981e-014
rhumerus -18.1476 45.4911 -85.6027
rradius 110.601
rwrist -1.6601
rhand -29.0718 -36.5888
rfingers 7.12502
rthumb -2.42104 -426.555
lclavicle 1.68563e-014 -4.11981e-014
lhumerus -20.2833 -19.6162 100.411
lradius 98.2013
lwrist 79.6612
lhand -16.2019 -12.6912
lfingers 7.12502
lthumb 10.0054 17.051
rfemur 0 0 0
rtibia 0
rfoot 0 0
rtoes 0
lfemur 18.6489 -6.19182 -11.6462
ltibia -19.8554
lfoot -1.08483 18.4318
ltoes -13.2552
713
root -1.03543 18.1682 5.74641 -1.39022 1.98938 -5.01512
lowerback 4.66756 1.65456 4.00116
upperback 1.33221 2.4152 1.65367
thorax -1.15086 1.20213 -0.674739
lowerneck -8.06859 3.7359 1.16214
upperneck 33.9546 9.99317 -13.2036
head 13.6706 3.0235 -4.07656
rclavicle -2.72568e-014 -1.74434e-014
rhumerus -16.7537 45.9768 -84.8687
rradius 109.741
rwrist -1.69825
rhand -29.1762 -36.654
rfingers 7.12502
rthumb -2.52184 -426.619
lclavicle -2.72568e-014 -1.74434e-014
lhumerus -20.3681 -19.5721 100.473
lradius 98.1931
lwrist 79.7576
lhand -16.2596 -12.7253
lfingers 7.12502
lthumb 9.94967 17.0195
rfemur 0 0 0
rtibia 0
rfoot 0 0
rtoes 0
lfemur 18.6695 -6.16306 -11.6856
ltibia -19.8166
lfoot -1.10439 18.4871
ltoes -13.2745
714
root -1.03461 18.1671 5.74436 -1.40658 1.86789 -4.97939
lowerback 4.53551 1.6441 3.9391
upperback 1.44338 2.38773 1.70273
thorax -0.968531 1.19271 -0.581741
lowerneck -8.15253 3.72261 1.2982
upperneck 33.9229 10.0187 -13.4337
head 13.703 3.02236 -4.19093
rclavicle 2.18228e-014 -5.46658e-016
rhumerus -15.1182 46.6773 -83.8782
rradius 108.801
rwrist -1.80656
rhand -28.8796 -36.484
rfingers 7.12502
rthumb -2.23539 -426.452
lclavicle 2.18228e-014 -5.46658e-016
lhumerus -20.2443 -19.4554 100.512
lradius 98.1309
lwrist 79.7878
lhand -16.3153 -12.7778
lfingers 7.12502
lthumb 9.89594 16.9696
rfemur 0 0 0
rtibia 0
rfoot 0 0
rtoes 0
lfemur 18.6929 -6.2337 -11.7537
ltibia -19.7545
lfoot -1.21318 18.6597
ltoes -13.0528
715
root -1.0349 18.1675 5.743 -1.41864 1.68677 -4.93348
lowerback 4.11151 1.60505 3.6666
upperback 1.75568 2.29203 1.85452
thorax -0.431617 1.15559 -0.249755
lowerneck -8.48524 3.76848 1.22923
upperneck 33.8262 10.1333 -13.5503
head 13.755 3.03777 -4.20052
rclavicle -1.43125e-014 -2.3059e-014
rhumerus -13.0945 47.5717 -82.4393
rradius 107.907
rwrist -2.07263
rhand -28.3605 -36.2924
rfingers 7.12502
rthumb -1.73413 -426.265
lclavicle -1.43125e-014 -2.3059e-014
lhumerus -19.7401 -19.146 100.478
lradius 98.0688
lwrist 79.788
lhand -16.3322 -12.713
lfingers 7.12502
lthumb 9.87969 17.0352
rfemur 0 0 0
rtibia 0
rfoot 0 0
rtoes 0
lfemur 18.7205 -6.36874 -11.8471
ltibia -19.6524
lfoot -1.39741 18.9536
ltoes -12.7964
716
root -1.02957 18.1727 5.73793 -1.33245 1.32678 -4.87187
lowerback 4.52706 1.74812 3.99882
upperback 1.46116 2.52624 1.61808
thorax -0.933687 1.26266 -0.707708
lowerneck -8.35775 3.69407 1.20315
upperneck 34.0334 9.93159 -13.1908
head 13.7654 2.98461 -4.08841
rclavicle 3.58185e-014 8.69683e-015
rhumerus -12.8071 47.7921 -82.4392
rradius 107.216
rwrist -2.32339
rhand -27.9875 -36.2702
rfingers 7.12502
rthumb -1.37389 -426.246
lclavicle 3.58185e-014 8.69683e-015
lhumerus -20.1305 -19.4078 100.485
lradius 98.0766
lwrist 79.7907
lhand -16.3761 -12.6043
lfingers 7.12502
lthumb 9.83732 17.1459
rfemur 0 0 0
rtibia 0
rfoot 0 0
rtoes 0
lfemur 18.6792 -6.46477 -11.9914
ltibia -19.5846
lfoot -1.58773 19.3945
ltoes -12.6143
717
root -1.0116 18.1852 5.72505 -1.04986 0.707064 -4.82372
lowerback 4.6774 1.96253 4.37231
upperback 1.24482 2.84203 1.43255
thorax -1.19929 1.41252 -1.13174
lowerneck -8.34565 3.63888 1.2556
upperneck 34.104 9.79319 -13.0361
head 13.7682 2.94617 -4.05748
rclavicle 1.21259e-014 6.48535e-015
rhumerus -12.421 47.9139 -82.2446
rradius 106.619
rwrist -2.57753
rhand -27.9545 -36.3952
rfingers 7.12502
rthumb -1.34195 -426.371
lclavicle 1.21259e-014 6.48535e-015
lhumerus -20.2301 -19.5892 100.507
lradius 98.0558
lwrist 79.7443
lhand -16.5312 -12.5636
lfingers 7.12502
lthumb 9.68763 17.1936
rfemur 0 0 0
rtibia 0
rfoot 0 0
rtoes 0
lfemur 18.4545 -6.59885 -12.193
ltibia -19.5364
lfoot -1.85048 20.1424
ltoes -12.1766
718
root -1.03111 18.1716 5.73484 -1.39756 1.11756 -4.83943
lowerback 4.7955 1.85649 4.08603
upperback 1.37429 2.69075 1.50866
thorax -1.15679 1.33984 -0.8885
lowerneck -8.3897 3.60795 1.23112
upperneck 34.0868 9.71655 -12.9386
head 13.7526 2.91981 -4.02171
rclavicle -2.43014e-014 -1.1368e-014
rhumerus -12.1245 47.7814 -82.006
rradius 106.173
rwrist -2.61167
rhand -27.9433 -36.8026
rfingers 7.12502
rthumb -1.33114 -426.778
lclavicle -2.43014e-014 -1.1368e-014
lhumerus -20.1614 -19.7356 100.563
lradius 98.0501
lwrist 79.741
lhand -16.6228 -12.5772
lfingers 7.12502
lthumb 9.59933 17.1841
rfemur 0 0 0
rtibia 0
rfoot 0 0
rtoes 0
lfemur 18.7729 -6.41727 -12.0445
ltibia -19.5229
lfoot -1.66186 19.5178
ltoes -12.6508
719
root -1.03708 18.1666 5.73749 -1.53289 1.3084 -4.83294
lowerback 4.85063 1.83875 3.98403
upperback 1.43079 2.66378 1.53621
thorax -1.13669 1.32749 -0.802931
lowerneck -8.38389 3.57763 1.1186
upperneck 34.0114 9.6397 -12.8114
head 13.6934 2.89043 -3.95514
rclavicle 6.1499e-016 -3.66509e-015
rhumerus -12.1184 47.2702 -81.9349
rradius 105.949
rwrist -2.57999
rhand -27.932 -37.131
rfingers 7.12502
rthumb -1.3202 -427.107
lclavicle 6.1499e-016 -3.66509e-015
lhumerus -20.0439 -19.887 100.647
lradius 98.0297
lwrist 79.724
lhand -16.4726 -12.6943
lfingers 7.12502
lthumb 9.74418 17.0603
rfemur 0 0 0
rtibia 0
rfoot 0 0
rtoes 0
lfemur 18.8991 -6.43311 -12.0189
ltibia -19.5446
lfoot -1.57429 19.3382
ltoes -12.7462
720
root -1.0362 18.1665 5.73721 -1.54627 1.46612 -4.83123
lowerback 4.84402 1.83468 4.01973
upperback 1.45045 2.65881 1.52191
thorax -1.11062 1.32571 -0.836481
lowerneck -8.34254 3.55645 1.01407
upperneck 33.8913 9.56883 -12.6909
head 13.608 2.86733 -3.89026
rclavicle 9.69696e-015 3.18055e-015
rhumerus -12.3754 46.4561 -82.1139
rradius 105.897
rwrist -2.58573
rhand -28.1292 -37.2987
rfingers 7.12502
rthumb -1.51069 -427.273
lclavicle 9.69696e-015 3.18055e-015
lhumerus -19.9268 -20.0219 100.699
lradius 98.0313
lwrist 79.6893
lhand -16.305 -12.7507
lfingers 7.12502
lthumb 9.90594 16.9962
rfemur 0 0 0
rtibia 0
rfoot 0 0
rtoes 0
lfemur 18.9071 -6.56016 -12.0287
ltibia -19.6162
lfoot -1.50117 19.3195
ltoes -12.8967
721
root -1.03722 18.1674 5.73848 -1.53593 1.63955 -4.84174
lowerback 4.82402 1.83508 4.00592
upperback 1.45718 2.65775 1.54289
thorax -1.09423 1.32557 -0.80632
lowerneck -8.2972 3.56333 0.982706
upperneck 33.7828 9.57797 -12.7144
head 13.5504 2.8721 -3.88755
rclavicle -1.25312e-014 -1.68718e-014
rhumerus -12.821 45.5427 -82.4002
rradius 106.011
rwrist -2.60933
rhand -28.3124 -37.7245
rfingers 7.12502
rthumb -1.68762 -427.698
lclavicle -1.25312e-014 -1.68718e-014
lhumerus -19.8923 -20.1447 100.767
lradius 98.0813
lwrist 79.6211
lhand -16.2086 -12.7479
lfingers 7.12502
lthumb 9.99892 16.9945
rfemur 0 0 0
rtibia 0
rfoot 0 0
rtoes 0
lfemur 18.8723 -6.61532 -12.0038
ltibia -19.6675
lfoot -1.39885 19.2211
ltoes -13.3017
722
root -1.04027 18.1691 5.7418 -1.49316 1.80902 -4.86458
lowerback 4.77236 1.83557 3.93559
upperback 1.4412 2.65378 1.59483
thorax -1.08777 1.32354 -0.712177
lowerneck -8.2595 3.59571 1.01892
upperneck 33.7386 9.66684 -12.8643
head 13.5452 2.90313 -3.9413
rclavicle 1.32642e-014 -8.59744e-015
rhumerus -13.3898 44.7392 -82.6858
rradius 106.293
rwrist -2.6819
rhand -28.5113 -38.1351
rfingers 7.12502
rthumb -1.87975 -428.107
lclavicle 1.32642e-014 -8.59744e-015
lhumerus -19.9488 -20.2258 100.837
lradius 98.1586
lwrist 79.5211
lhand -16.074 -12.8796
lfingers 7.12502
lthumb 10.1287 16.8566
rfemur 0 0 0
rtibia 0
rfoot 0 0
rtoes 0
lfemur 18.8098 -6.65348 -11.9514
ltibia -19.7257
lfoot -1.30783 19.1259
ltoes -13.4636
723
root -1.04279 18.1694 5.74557 -1.45979 2.02008 -4.91704
lowerback 4.71704 1.79735 3.94147
upperback 1.4222 2.60145 1.62514
thorax -1.07972 1.29737 -0.680077
lowerneck -8.20139 3.64876 1.03462
upperneck 33.7052 9.77725 -12.974
head 13.5388 2.94573 -3.9726
rclavicle 4.22883e-015 -1.74185e-014
rhumerus -14.0449 44.1473 -83.0018
rradius 106.654
rwrist -2.67598
rhand -28.6872 -38.3084
rfingers 7.12502
rthumb -2.04962 -428.278
lclavicle 4.22883e-015 -1.74185e-014
lhumerus -20.0182 -20.2203 100.845
lradius 98.2639
lwrist 79.429
lhand -15.9939 -13.0246
lfingers 7.12502
lthumb 10.206 16.7078
rfemur 0 0 0
rtibia 0
rfoot 0 0
rtoes 0
lfemur 18.7468 -6.66679 -11.859
ltibia -19.7847
lfoot -1.20492 18.9556
ltoes -13.4954
